<svg xmlns="http://www.w3.org/2000/svg" id="Layer_1" data-name="Layer 1" viewBox="0 0 566.9 170.1"><defs><style>      .cls-1 {        fill: #000;      }      .cls-1, .cls-2 {        stroke-width: 0px;      }      .cls-2 {        fill: #c41230;      }    </style></defs><path class="cls-1" d="M486.7,67.1v-30.4h-33.4v33.4h30.4v60.9h63.9v-63.9h-60.9ZM508.4,84.9c3.7,0,6.8,3,6.8,6.8s-3,6.8-6.8,6.8-6.8-3-6.8-6.8,3-6.8,6.8-6.8ZM508.4,111c.9,0,1.9.4,2.6,1.1,1.4,1.4,1.4,3.8,0,5.2-1.4,1.4-3.8,1.4-5.2,0-1.4-1.4-1.4-3.8,0-5.2.7-.7,1.7-1.1,2.6-1.1ZM509.8,120.4c1-.3,2-.8,2.8-1.5,2.3-2.3,2.3-6.1,0-8.4-.8-.8-1.7-1.3-2.7-1.5v-7.6c1.5-.2,2.9-.8,4.1-1.7l28.5,28.4h-32.7v-7.6ZM516.2,97.6c1-1.3,1.6-2.7,1.9-4.4h7.7c.3.9.7,1.8,1.5,2.6,1.2,1.2,2.7,1.7,4.2,1.7s3-.6,4.2-1.7c.7-.7,1.2-1.7,1.5-2.6h7.6c0,0,0,32.8,0,32.8l-28.5-28.4ZM528.8,89c.7-.7,1.7-1.1,2.6-1.1s1.9.4,2.6,1.1c1.4,1.4,1.4,3.8,0,5.2-1.4,1.4-3.8,1.4-5.2,0-1.4-1.4-1.4-3.8,0-5.2ZM544.7,90.2h-7.5c-.2-1-.8-2-1.6-2.8-2.3-2.3-6.1-2.3-8.4,0-.8.8-1.3,1.8-1.5,2.8h-7.7c-.7-4.6-4.7-8.2-9.6-8.2s-4.2.7-5.8,1.9l-13.9-13.8h56v20.1ZM456.3,39.6h27.4v25.5l-7.4-7.4c.9-1.2,1.4-2.8,1.4-4.4,0-4.3-3.5-7.7-7.7-7.7s-7.7,3.5-7.7,7.7,3.5,7.7,7.7,7.7,3-.5,4.2-1.3l7.3,7.3h-25.2v-27.4ZM486.7,72.2l13.8,13.7c-1.2,1.6-1.9,3.6-1.9,5.7,0,4.9,3.6,8.9,8.2,9.6v7.6c-.9.3-1.9.8-2.7,1.5-2.3,2.3-2.3,6.1,0,8.4.8.8,1.7,1.3,2.7,1.5v7.6c0,0-20.1,0-20.1,0v-55.8Z"></path><g><polygon class="cls-2" points="212.7 44.3 212.7 68.5 216.8 68.5 216.8 70.1 200.6 70.1 200.6 68.5 204.6 68.5 204.6 46 201.5 46 201.5 44.3 212.7 44.3"></polygon><path class="cls-2" d="M53.1,28.6h-1.5c0,1.2-.7,1.8-2,1.8-2.5,0-6.1-3-10.4-3-12.2,0-19.5,12-19.5,22.6s7,21.1,18.8,21.1,9.8-3.4,11.7-3.4,1.5,1.1,1.5,2.4h1.6v-14.6h-1.6l-.4,2c-.8,4.8-4.6,11.9-12.2,11.9s-9.4-5.9-9.4-20.3,3.6-20.2,9.6-20.2,11.4,7.6,12.4,13.6h1.5v-14Z"></path><path class="cls-2" d="M73.9,63.2c-.1,3.1-1.9,5.7-4.6,5.7-4,0-4.2-3.4-4.2-5.9s.4-5.2,4.2-5.6l4.6-.5v6.3ZM84.6,65.1c0,1.5-1,3.3-1.7,3.3-1.1,0-1.3-1.1-1.3-2.9v-13.5c0-6.7-6.3-8.3-12.3-8.3s-10.1,2.9-10.1,6.2,1.2,3.8,3.8,3.8,3.6-1.5,3.6-3.5c0-3-3.1-3-3.1-3.1,0-1.3,3.4-1.8,5.4-1.8,4.4,0,5,1.6,5,5.1v4.9l-5.7.5c-5.3.4-11.1,1.8-11.1,7.9s4.6,7.1,9.1,7.1,6.3-.9,7.9-3.7c1.1,2.5,3.2,3.7,5.9,3.7,3.8,0,6.3-2.3,6.3-5.7h-1.5Z"></path><path class="cls-2" d="M278.2,56.7l9.7-27.8h13.4v1.7h-3.9v37.9h3.8v1.6h-16.1v-1.6h3.9V31h-.1l-13.6,39.1h-1.6l-14-39.8h-.1v33.2c0,4.7,1.2,5,4.4,5h.2v1.6h-10.1v-1.6h0c3.3,0,4-2,4-4.5V30.6h-4v-1.7h14.7l9.4,27.8Z"></path><path class="cls-2" d="M310.6,54.4v-3.9c0-3.9,1.7-5.2,3.7-5.2s3.7,1.9,3.7,5.2v3.9h-7.4ZM310.6,56h16.2c0-6.3-5.9-12.4-12.1-12.3-6.9,0-12.9,6-12.9,13.9s5.6,13.3,13.1,13.3,10.8-4.5,12.1-10.3h-1.6c-1.3,5.4-4.1,8.5-8.7,8.5s-6-4.3-6-8.3v-4.9Z"></path><polygon class="cls-2" points="326.9 29 326.9 30.5 330.9 30.5 330.9 68.5 326.9 68.5 326.9 70.1 343.1 70.1 343.1 68.5 339 68.5 339 29 326.9 29"></polygon><polygon class="cls-2" points="344.2 29 344.2 30.5 348.2 30.5 348.2 68.5 344.2 68.5 344.2 70.1 360.4 70.1 360.4 68.5 356.3 68.5 356.3 29 344.2 29"></polygon><path class="cls-2" d="M379,63c0,4.4-1.8,6.2-4.8,6.2s-4.8-1.8-4.8-6.2v-11.5c0-4.4,1.8-6.2,4.8-6.2s4.8,1.8,4.8,6.2v11.5ZM388.1,57.2c0-8-6.2-13.6-13.9-13.6s-13.9,5.6-13.9,13.6,6.2,13.6,13.9,13.6,13.9-5.6,13.9-13.6"></path><path class="cls-2" d="M155.1,54.4v-3.9c0-3.9,1.7-5.2,3.7-5.2s3.7,1.9,3.7,5.2v3.9h-7.4ZM155.1,55.9h16.2c0-6.3-5.9-12.4-12.1-12.3-6.9,0-12.9,6-12.9,13.9s5.6,13.3,13.1,13.3,10.8-4.5,12.1-10.3h-1.6c-1.3,5.4-4.1,8.5-8.7,8.5s-6-4.3-6-8.3v-4.9Z"></path><path class="cls-2" d="M225.8,54.4v-3.9c0-3.9,1.7-5.2,3.7-5.2s3.7,1.2,3.7,5.2v3.9h-7.4ZM225.8,55.9h16.2c0-6.3-5.9-12.4-12.1-12.3-6.9,0-12.9,6-12.9,13.9s5.6,13.3,13.1,13.3,10.8-4.5,12.1-10.3h-1.6c-1.3,5.4-4.1,8.5-8.7,8.5s-6-4.3-6-8.3v-4.9Z"></path><path class="cls-2" d="M400.2,44.4v4.7h0c1.6-3.4,5.6-5.7,9.5-5.7,5.6,0,8.3,3,8.3,9.3v15.8h4v1.6h-15.5v-1.6h3.3v-18c0-3.9-1.1-4.7-3.2-4.7-3.2,0-6,5-6.5,7.2v15.5s3.5,0,3.5,0v1.6h-15.6v-1.6h4v-22.6h-4v-1.6h12.1Z"></path><path class="cls-2" d="M142.2,68.5v-15.8c0-6.3-2.7-9.3-8.3-9.3s-7.9,2.3-9.5,5.7h0v-4.7h-12.1v1.6h4v22.6h-4v1.6h15.6v-1.6h-3.5v-15.5c.5-2.2,3.3-7.2,6.5-7.2s3.2.7,3.2,4.7v18h-3.3v1.6h15.5v-1.6h-4Z"></path><path class="cls-2" d="M204.7,36.3c0,2.2,1.8,4,4,4s4-1.8,4-4-1.8-4-4-4-4,1.8-4,4"></path><path class="cls-2" d="M106.4,43.4c-3.7,0-6.6,2.6-7.7,5.5h-.1v-4.5h-12v1.6h4v22.5h-4v1.6h17.5v-1.6h-5.4v-12.6c0-3.8,1-7.6,3.5-9.8.1-.1.3-.1.5,0,.2,0,.3.3.3.5h0c-.2.5-.3,1-.3,1.7,0,2.1,1.7,3.8,4,3.8s4.5-2,4.5-4.3-1.9-4.5-4.6-4.5Z"></path><path class="cls-2" d="M194.6,45.3c.1,0,.3,0,.4,0s0,.2,0,.3h0c-.4.6-.5,1.4-.2,2.2.3.8,1,1.4,1.8,1.6,1.7.4,3.1-.9,3.1-2.5s-.6-1.8-1.4-2.3-1.6-.7-2.6-.7c-1.6,0-3.2.8-4.3,1.8,0,0,0,0,0,0-.3-.2-.5-.4-.8-.5-1.6-.9-3.7-1.6-6.5-1.6-4.9,0-10.2,3.2-10.2,8.6s1.8,5.7,4.9,7.1h0c-2.3.4-5.9,2-5.9,6.9s1.3,5.2,3.8,5.9h0c-2.3.8-5,3.1-5,5.9,0,4.3,5.1,7.7,11.6,7.7s13.5-5.5,13.5-12.7-2.8-8.3-8.6-8.1h-9.7c-1.5,0-2.4,0-2.4-1.6s2.2-3,4.5-3,1,.3,1.2.4c.7.2,1.5.4,2.4.4,5,0,10.4-2.9,10.4-8.4s-.7-4.1-2.1-5.5c0,0,0-.2,0-.3.6-.4,1.2-.8,1.5-1,.3-.1.4-.2.7-.3h0ZM186.8,72.2c5.9,0,7.4.2,7.4,3.8s-5.2,8.2-11.2,8.2-7.8-3.2-7.9-6c0-2.6,1.3-4.3,2.9-6h8.8ZM187.8,52.2c0,6.8-1.6,7-3.7,7s-3.6-.5-3.6-7.2.5-6.8,3.6-6.8,3.6.2,3.7,6.9h0Z"></path></g><g><path class="cls-1" d="M276.4,94.2c1.8,1,3.2,2.4,4.2,4.2,1,1.8,1.5,3.9,1.5,6.2s-.5,4.3-1.6,6c-1,1.7-2.5,3.1-4.4,4.1-1.9,1-4,1.4-6.5,1.4h-7.7c-.2,0-.3.1-.3.3v13.6c0,.6-.3.9-.9.9h-5.8c-.6,0-.9-.3-.9-.9v-36.3c0-.6.3-.9.9-.9h15.1c2.4,0,4.5.5,6.3,1.5ZM273,108.5c1-1,1.5-2.2,1.5-3.8s-.5-2.9-1.5-3.9c-1-1-2.4-1.5-4-1.5h-6.9c-.2,0-.3.1-.3.3v9.9c0,.2.1.3.3.3h6.9c1.7,0,3-.5,4-1.4Z"></path><path class="cls-1" d="M290.9,129c-2.2-1.6-3.7-3.8-4.5-6.5-.5-1.7-.8-3.6-.8-5.6s.3-4.1.8-5.8c.8-2.7,2.3-4.8,4.5-6.3,2.2-1.5,4.8-2.3,7.9-2.3s5.5.8,7.7,2.3c2.1,1.5,3.6,3.6,4.4,6.3.5,1.7.8,3.6.8,5.7s-.2,3.7-.7,5.5c-.8,2.8-2.3,5.1-4.5,6.7-2.2,1.6-4.7,2.4-7.8,2.4s-5.7-.8-7.9-2.4ZM301.8,123.7c.8-.7,1.4-1.7,1.8-3,.3-1,.4-2.3.4-3.8s-.1-2.8-.4-3.9c-.4-1.2-1-2.2-1.8-2.9-.8-.7-1.9-1-3.1-1s-2.2.3-3,1c-.8.7-1.4,1.7-1.8,2.9-.3,1.1-.4,2.3-.4,3.9s.1,2.8.4,3.8c.4,1.3,1,2.3,1.8,3,.9.7,1.9,1.1,3.1,1.1s2.2-.4,3-1.1Z"></path><path class="cls-1" d="M334.4,103.2c.4.2.6.6.5,1.1l-1,5.7c0,.3-.1.5-.3.6-.2,0-.4,0-.8,0-.6-.1-1.1-.2-1.6-.2s-.7,0-1.3.1c-1.3.1-2.4.6-3.3,1.4-.9.9-1.4,2-1.4,3.4v14.6c0,.6-.3.9-.9.9h-5.8c-.6,0-.9-.3-.9-.9v-26.1c0-.6.3-.9.9-.9h5.8c.6,0,.9.3.9.9v1.7c0,.1,0,.2.1.3,0,0,.2,0,.3-.1,1.5-2.1,3.4-3.2,5.9-3.2s2.1.2,2.9.7Z"></path><path class="cls-1" d="M355.1,109.1h-4.9c-.2,0-.3.1-.3.3v11.3c0,1.2.2,2.1.7,2.6s1.3.8,2.4.8h1.5c.6,0,.9.3.9.9v4.7c0,.6-.3.9-.9,1-1.4,0-2.4.1-3,.1-3,0-5.3-.5-6.8-1.5-1.5-1-2.3-2.9-2.3-5.7v-14.3c0-.2-.1-.3-.3-.3h-2.8c-.6,0-.9-.3-.9-.9v-4.3c0-.6.3-.9.9-.9h2.8c.2,0,.3-.1.3-.3v-6.2c0-.6.3-.9.9-.9h5.6c.6,0,.9.3.9.9v6.2c0,.2.1.3.3.3h4.9c.6,0,.9.3.9.9v4.3c0,.6-.3.9-.9.9Z"></path><path class="cls-1" d="M378.5,102.9h5.8c.6,0,.9.3.9.9v26.1c0,.6-.3.9-.9.9h-5.8c-.6,0-.9-.3-.9-.9v-1.5c0-.1,0-.2-.1-.2,0,0-.2,0-.2.1-1.4,1.9-3.7,2.9-6.7,2.9s-5-.8-6.8-2.5c-1.8-1.7-2.7-4-2.7-7v-17.9c0-.6.3-.9.9-.9h5.8c.6,0,.9.3.9.9v16c0,1.5.4,2.6,1.2,3.5.8.9,1.9,1.4,3.2,1.4s2.3-.4,3-1.1c.8-.7,1.3-1.7,1.5-2.9v-16.9c0-.6.3-.9.9-.9Z"></path><path class="cls-1" d="M409.9,102.9h5.8c.6,0,.9.3.9.9v24.6c0,4.8-1.4,8.2-4.1,10.2-2.7,2-6.2,3-10.5,3s-2.6,0-4.1-.3c-.5,0-.8-.4-.8-1l.2-5.1c0-.3,0-.5.3-.7.2-.2.4-.2.7-.1,1.3.2,2.5.3,3.3.3,2.3,0,4.1-.5,5.4-1.5,1.3-1,1.9-2.7,1.9-4.9s0-.2-.1-.2c0,0-.2,0-.3.1-1.3,1.5-3.3,2.2-6,2.2s-4.5-.6-6.5-1.7c-2-1.1-3.4-3-4.2-5.5-.5-1.7-.8-3.8-.8-6.5s.3-5.1,1-6.9c.8-2.2,2.1-4,3.9-5.3s3.9-2,6.3-2,4.8.8,6.4,2.5c.1.1.2.1.3.1,0,0,.1-.1.1-.3v-.9c0-.6.3-.9.9-.9ZM409,116.7c0-1.1,0-2-.1-2.6,0-.6-.2-1.2-.4-1.7-.3-1-.9-1.8-1.6-2.4-.8-.6-1.7-.9-2.8-.9s-2,.3-2.8.9-1.3,1.4-1.7,2.4c-.5,1.1-.8,2.6-.8,4.4s.2,3.5.7,4.4c.3,1,.9,1.8,1.7,2.4.8.6,1.8.9,2.9.9s2.1-.3,2.9-.9c.8-.6,1.3-1.4,1.6-2.3.3-1.1.4-2.6.4-4.5Z"></path><path class="cls-1" d="M440.9,103.7c1.9.8,3.3,1.9,4.3,3.4,1,1.4,1.6,3,1.6,4.7v18.2c0,.6-.3.9-.9.9h-5.8c-.6,0-.9-.3-.9-.9v-1.3c0-.1,0-.2-.1-.2s-.2,0-.3.1c-1.7,1.9-4.2,2.8-7.5,2.8s-5-.7-6.8-2.1c-1.7-1.4-2.6-3.4-2.6-6.1s1-5,2.9-6.5c2-1.5,4.8-2.3,8.4-2.3h5.5c.2,0,.3-.1.3-.3v-1.1c0-1.2-.4-2.1-1.1-2.8s-1.8-1-3.2-1-2,.2-2.7.5c-.7.4-1.2.9-1.4,1.5-.2.5-.6.7-1.1.7l-6-.8c-.3,0-.5-.1-.7-.2-.2-.1-.2-.3-.2-.5.2-1.5.8-2.8,1.9-4,1.1-1.2,2.5-2.1,4.2-2.8,1.8-.7,3.7-1,5.9-1s4.5.4,6.3,1.2ZM437.5,124.4c1.1-.8,1.6-1.9,1.6-3.2v-1.9c0-.2-.1-.3-.3-.3h-3.9c-1.6,0-2.9.3-3.9.9-.9.6-1.4,1.5-1.4,2.6s.4,1.8,1.1,2.3c.7.6,1.6.8,2.8.8s2.9-.4,4-1.3Z"></path><path class="cls-1" d="M453.4,130v-36.3c0-.6.3-.9.9-.9h5.8c.6,0,.9.3.9.9v36.3c0,.6-.3.9-.9.9h-5.8c-.6,0-.9-.3-.9-.9Z"></path></g></svg>