<svg xmlns="http://www.w3.org/2000/svg" xmlns:xlink="http://www.w3.org/1999/xlink" id="Layer_1" x="0px" y="0px" viewBox="0 0 1085.4 420" style="enable-background:new 0 0 1085.4 420;" xml:space="preserve"><style type="text/css">	.st0{fill:#231F20;}</style><g>	<g>		<g>			<path class="st0" d="M504.6,174.1v-38.5h24.7v5.2h-18.6V152h16.9v5.2h-16.9v16.9H504.6z"></path>			<path class="st0" d="M555.4,169.3h-0.3c-1.2,3-3.5,5.5-8.2,5.5c-5.7,0-9.6-3.9-9.6-10.8v-18.3h6v17.4c0,4.5,2,6.8,5.9,6.8    c3.1,0,6.2-1.6,6.2-4.9v-19.3h6v28.4h-6V169.3z"></path>			<path class="st0" d="M570.6,174.1v-28.4h6v4.9h0.3c1.2-3,3.5-5.5,8.2-5.5c5.7,0,9.6,3.9,9.6,10.8v18.3h-6v-17.4    c0-4.5-2-6.8-5.9-6.8c-3.1,0-6.2,1.6-6.2,4.9v19.3H570.6z"></path>			<path class="st0" d="M621.8,169.3h-0.3c-1.7,3.4-4.4,5.5-8.6,5.5c-6.7,0-11-5.1-11-14.9s4.3-14.9,11-14.9c4.2,0,6.9,2.1,8.6,5.5    h0.3v-17.2h6v40.8h-6V169.3z M621.8,164.6v-9.5c0-3.5-3-5.2-6.4-5.2c-4.5,0-7.1,3-7.1,7.7v4.6c0,4.6,2.6,7.7,7.1,7.7    C618.8,169.9,621.8,168.1,621.8,164.6z"></path>			<path class="st0" d="M659.3,174.1c-3.4,0-5.1-1.9-5.5-4.8h-0.3c-1.1,3.4-4.1,5.5-8.5,5.5c-5.8,0-9.5-3.3-9.5-8.6    c0-5.5,4-8.5,12.5-8.5h5.5v-2.2c0-3.8-2-5.8-6.1-5.8c-3.6,0-5.8,1.5-7.3,3.9l-3.6-2.9c1.6-3.1,5.5-5.7,11.5-5.7    c7.2,0,11.6,3.6,11.6,10.1v14.3h3.6v4.7H659.3z M653.4,165.6v-4.1H648c-4.4,0-6.5,1.4-6.5,3.9v1.1c0,2.5,2,3.9,5.2,3.9    C650.6,170.4,653.4,168.4,653.4,165.6z"></path>			<path class="st0" d="M693.8,151.7l-4.7,2.5c-1-2.6-3.1-4.3-6.4-4.3c-4.5,0-7.2,3-7.2,7.6v4.7c0,4.5,2.6,7.6,7.3,7.6    c3.5,0,5.7-1.8,7-4.5l4.4,2.7c-1.8,3.9-5.3,6.6-11,6.8l-0.6,2.5l0.2,0.2c0.8-0.2,1.6-0.4,2.4-0.4c2.1,0,3.9,1.2,3.9,3.7    c0,3.4-3.1,4.7-6.6,4.7c-3.3,0-5.2-1.3-6-2.3l2.3-2.6c0.7,0.8,1.8,1.5,3.5,1.5c1.4,0,2.4-0.5,2.4-1.6c0-0.9-0.7-1.8-3.9-2.2    l-1.4-0.2l0.8-3.7c-6.9-1-10.9-6.6-10.9-14.7c0-9.1,5.1-14.9,13.4-14.9C688.6,145,692.1,147.8,693.8,151.7z"></path>			<path class="st0" d="M725.4,174.1c-3.4,0-5.1-1.9-5.5-4.8h-0.3c-1.1,3.4-4.1,5.5-8.5,5.5c-5.8,0-9.5-3.3-9.5-8.6    c0-5.5,4-8.5,12.5-8.5h5.5v-2.2c0-3.8-2-5.8-6.1-5.8c-3.6,0-5.8,1.5-7.3,3.9l-3.6-2.9c1.6-3.1,5.5-5.7,11.5-5.7    c7.2,0,11.6,3.6,11.6,10.1v14.3h3.6v4.7H725.4z M713.9,139.5c-1.7-0.8-2.9-1.3-4.1-1.3c-1.2,0-2.1,0.5-3.2,1.4l-2.3-2.9    c1.1-1.7,3-3.1,5.7-3.1c1.8,0,3.1,0.7,4.3,1.3c1.7,0.8,2.9,1.3,4.1,1.3c1.2,0,2.1-0.5,3.2-1.4l2.3,2.9c-1.1,1.7-3,3.1-5.7,3.1    C716.4,140.8,715.1,140.1,713.9,139.5z M719.5,165.6v-4.1h-5.3c-4.4,0-6.5,1.4-6.5,3.9v1.1c0,2.5,2,3.9,5.2,3.9    C716.7,170.4,719.5,168.4,719.5,165.6z"></path>			<path class="st0" d="M734.4,159.9c0-9.1,5.1-14.9,13.5-14.9c8.4,0,13.5,5.8,13.5,14.9c0,9.1-5.1,14.9-13.5,14.9    C739.5,174.8,734.4,169,734.4,159.9z M755.1,162v-4.3c0-5.3-2.9-8-7.2-8c-4.4,0-7.2,2.7-7.2,8v4.3c0,5.3,2.9,8,7.2,8    C752.3,170,755.1,167.3,755.1,162z"></path>			<path class="st0" d="M504.2,211.8h6v4.9h0.3c1.7-3.4,4.4-5.5,8.6-5.5c6.7,0,11,5.1,11,14.9c0,9.8-4.3,14.9-11,14.9    c-4.2,0-6.9-2.1-8.6-5.5h-0.3v15.9h-6V211.8z M523.8,228.3v-4.6c0-4.6-2.6-7.7-7.1-7.7c-3.5,0-6.4,1.8-6.4,5.2v9.5    c0,3.5,3,5.2,6.4,5.2C521.2,236,523.8,233,523.8,228.3z"></path>			<path class="st0" d="M560.1,240.2c-3.4,0-5.1-1.9-5.5-4.8h-0.3c-1.1,3.4-4.1,5.5-8.5,5.5c-5.8,0-9.5-3.3-9.5-8.6    c0-5.5,4-8.5,12.5-8.5h5.5v-2.2c0-3.8-2-5.8-6.1-5.8c-3.6,0-5.8,1.5-7.3,3.9l-3.6-2.9c1.6-3.1,5.5-5.7,11.5-5.7    c7.2,0,11.6,3.6,11.6,10.1v14.3h3.6v4.7H560.1z M554.2,231.8v-4.1h-5.3c-4.4,0-6.5,1.4-6.5,3.9v1.1c0,2.5,2,3.9,5.2,3.9    C551.4,236.5,554.2,234.6,554.2,231.8z"></path>			<path class="st0" d="M570.2,235.4h7.6v-18.7h-7.6v-4.9h13.6v7.6h0.3c1.1-4,3.6-7.6,9.4-7.6h3.4v5.7h-5.6c-4.9,0-7.5,3.3-7.5,7.2    v10.6h10.3v4.9h-23.9V235.4z"></path>			<path class="st0" d="M626.2,240.2c-3.4,0-5.1-1.9-5.5-4.8h-0.3c-1.1,3.4-4.1,5.5-8.5,5.5c-5.8,0-9.5-3.3-9.5-8.6    c0-5.5,4-8.5,12.5-8.5h5.5v-2.2c0-3.8-2-5.8-6.1-5.8c-3.6,0-5.8,1.5-7.3,3.9l-3.6-2.9c1.6-3.1,5.5-5.7,11.5-5.7    c7.2,0,11.6,3.6,11.6,10.1v14.3h3.6v4.7H626.2z M620.3,231.8v-4.1H615c-4.4,0-6.5,1.4-6.5,3.9v1.1c0,2.5,2,3.9,5.2,3.9    C617.5,236.5,620.3,234.6,620.3,231.8z"></path>			<path class="st0" d="M692.3,240.2c-3.4,0-5.1-1.9-5.5-4.8h-0.3c-1.1,3.4-4.1,5.5-8.5,5.5c-5.8,0-9.5-3.3-9.5-8.6    c0-5.5,4-8.5,12.5-8.5h5.5v-2.2c0-3.8-2-5.8-6.1-5.8c-3.6,0-5.8,1.5-7.3,3.9l-3.6-2.9c1.6-3.1,5.5-5.7,11.5-5.7    c7.2,0,11.6,3.6,11.6,10.1v14.3h3.6v4.7H692.3z M686.4,231.8v-4.1h-5.3c-4.4,0-6.5,1.4-6.5,3.9v1.1c0,2.5,2,3.9,5.2,3.9    C683.6,236.5,686.4,234.6,686.4,231.8z"></path>			<path class="st0" d="M734.6,221c0-12.7,4.7-19.9,14.4-19.9c7.4,0,10.9,4.3,12.6,9.5l-5.6,1.9c-1.2-3.5-2.8-6.3-7.1-6.3    c-5.5,0-7.8,4.5-7.8,11.5v6.5c0,7.1,2.4,11.5,7.8,11.5c4.4,0,6-2.8,7.1-6.3l5.6,1.9c-1.8,5.2-5.2,9.5-12.6,9.5    C739.2,240.9,734.6,233.7,734.6,221z"></path>			<path class="st0" d="M770,235.4h9.7v-18.7H770v-4.9h15.7v23.6h9.1v4.9H770V235.4z M778.6,203.4v-1.2c0-1.8,1.1-3.3,4.1-3.3    c3,0,4.1,1.4,4.1,3.3v1.2c0,1.8-1.1,3.3-4.1,3.3C779.7,206.6,778.6,205.2,778.6,203.4z"></path>			<path class="st0" d="M800.8,226.1c0-9.2,5.3-14.9,13.4-14.9c8,0,13.1,5.7,13.1,14.1v2.3h-20.4v0.9c0,4.5,3,7.6,7.9,7.6    c3.6,0,6.3-1.7,7.9-4.4l3.7,3.3c-1.9,3.3-5.9,5.9-11.7,5.9C805.9,240.9,800.8,235.1,800.8,226.1z M817.1,197.6l6.6,8.3l-3.2,2.3    l-6.5-6.4l-6.6,6.4l-3-2.3l6.6-8.3H817.1z M806.9,223.3v0.4h14.3v-0.6c0-4.5-2.8-7.4-6.9-7.4    C809.9,215.7,806.9,218.9,806.9,223.3z"></path>			<path class="st0" d="M835.2,240.2v-28.4h6v4.9h0.3c1.2-3,3.5-5.5,8.2-5.5c5.7,0,9.6,3.9,9.6,10.8v18.3h-6v-17.4    c0-4.5-2-6.8-5.9-6.8c-3.1,0-6.2,1.6-6.2,4.9v19.3H835.2z"></path>			<path class="st0" d="M867.7,226c0-9.1,5.1-14.9,13.4-14.9c5.8,0,9.3,2.8,11.1,6.7l-4.7,2.5c-1-2.6-3.1-4.3-6.4-4.3    c-4.5,0-7.2,3-7.2,7.6v4.7c0,4.5,2.6,7.6,7.3,7.6c3.5,0,5.7-1.8,7-4.5l4.4,2.7c-1.8,4-5.5,6.8-11.5,6.8    C872.7,240.9,867.7,235.1,867.7,226z"></path>			<path class="st0" d="M902.3,235.4h9.7v-18.7h-9.7v-4.9H918v23.6h9.1v4.9h-24.8V235.4z M910.9,203.4v-1.2c0-1.8,1.1-3.3,4.1-3.3    c3,0,4.1,1.4,4.1,3.3v1.2c0,1.8-1.1,3.3-4.1,3.3C912,206.6,910.9,205.2,910.9,203.4z"></path>			<path class="st0" d="M956.9,240.2c-3.4,0-5.1-1.9-5.5-4.8h-0.3c-1.1,3.4-4.1,5.5-8.5,5.5c-5.8,0-9.5-3.3-9.5-8.6    c0-5.5,4-8.5,12.5-8.5h5.5v-2.2c0-3.8-2-5.8-6.1-5.8c-3.6,0-5.8,1.5-7.3,3.9l-3.6-2.9c1.6-3.1,5.5-5.7,11.5-5.7    c7.2,0,11.6,3.6,11.6,10.1v14.3h3.6v4.7H956.9z M951,231.8v-4.1h-5.3c-4.4,0-6.5,1.4-6.5,3.9v1.1c0,2.5,2,3.9,5.2,3.9    C948.2,236.5,951,234.6,951,231.8z"></path>			<path class="st0" d="M503.2,292.2c0-9.2,5.3-14.9,13.4-14.9c8,0,13.1,5.7,13.1,14.1v2.3h-20.4v0.9c0,4.5,3,7.6,7.9,7.6    c3.6,0,6.3-1.7,7.9-4.4l3.7,3.3c-1.9,3.3-5.9,5.9-11.7,5.9C508.3,307,503.2,301.3,503.2,292.2z M509.2,289.4v0.4h14.3v-0.6    c0-4.5-2.8-7.4-6.9-7.4C512.3,281.9,509.2,285,509.2,289.4z"></path>			<path class="st0" d="M593.1,306.4c-3.4,0-5.1-1.9-5.5-4.8h-0.3c-1.1,3.4-4.1,5.5-8.5,5.5c-5.8,0-9.5-3.3-9.5-8.6    c0-5.5,4-8.5,12.5-8.5h5.5v-2.2c0-3.8-2-5.8-6.1-5.8c-3.6,0-5.8,1.5-7.3,3.9l-3.6-2.9c1.6-3.1,5.5-5.7,11.5-5.7    c7.2,0,11.6,3.6,11.6,10.1v14.3h3.6v4.7H593.1z M587.2,297.9v-4.1h-5.3c-4.4,0-6.5,1.4-6.5,3.9v1.1c0,2.5,2,3.9,5.2,3.9    C584.4,302.6,587.2,300.7,587.2,297.9z"></path>			<path class="st0" d="M651.8,273.1v33.3h-6.2v-33.3h-12.1v-5.2h30.3v5.2H651.8z"></path>			<path class="st0" d="M668.5,292.2c0-9.2,5.3-14.9,13.4-14.9c8,0,13.1,5.7,13.1,14.1v2.3h-20.4v0.9c0,4.5,3,7.6,7.9,7.6    c3.6,0,6.3-1.7,7.9-4.4l3.7,3.3c-1.9,3.3-5.9,5.9-11.7,5.9C673.7,307,668.5,301.3,668.5,292.2z M674.6,289.4v0.4h14.3v-0.6    c0-4.5-2.8-7.4-6.9-7.4C677.6,281.9,674.6,285,674.6,289.4z"></path>			<path class="st0" d="M702.4,292.2c0-9.1,5.1-14.9,13.4-14.9c5.8,0,9.3,2.8,11.1,6.7l-4.7,2.5c-1-2.6-3.1-4.3-6.4-4.3    c-4.5,0-7.2,3-7.2,7.6v4.7c0,4.5,2.6,7.6,7.3,7.6c3.5,0,5.7-1.8,7-4.5l4.4,2.7c-1.8,4-5.5,6.8-11.5,6.8    C707.4,307,702.4,301.3,702.4,292.2z"></path>			<path class="st0" d="M736,306.4v-28.4h6v4.9h0.3c1.2-3,3.5-5.5,8.2-5.5c5.7,0,9.6,3.9,9.6,10.8v18.3h-6V289c0-4.5-2-6.8-5.9-6.8    c-3.1,0-6.2,1.6-6.2,4.9v19.3H736z"></path>			<path class="st0" d="M767.5,292.2c0-9.1,5.1-14.9,13.5-14.9c8.4,0,13.5,5.8,13.5,14.9c0,9.1-5.1,14.9-13.5,14.9    C772.6,307,767.5,301.3,767.5,292.2z M788.2,294.3V290c0-5.3-2.9-8-7.2-8c-4.4,0-7.2,2.7-7.2,8v4.3c0,5.3,2.9,8,7.2,8    C785.3,302.3,788.2,299.6,788.2,294.3z"></path>			<path class="st0" d="M801.6,301.5h9.4v-31.1h-9.4v-4.9h15.4v35.9h9.4v4.9h-24.9V301.5z"></path>			<path class="st0" d="M833.6,292.2c0-9.1,5.1-14.9,13.5-14.9c8.4,0,13.5,5.8,13.5,14.9c0,9.1-5.1,14.9-13.5,14.9    C838.7,307,833.6,301.3,833.6,292.2z M854.3,294.3V290c0-5.3-2.9-8-7.2-8c-4.4,0-7.2,2.7-7.2,8v4.3c0,5.3,2.9,8,7.2,8    C851.5,302.3,854.3,299.6,854.3,294.3z"></path>			<path class="st0" d="M880.1,318.1c-9.8,0-13.2-2.6-13.2-6.8c0-3.1,1.8-4.7,5-5.5v-0.6c-1.9-0.7-3.1-2-3.1-4.1    c0-2.8,2.1-4.1,5.1-4.8V296c-3.4-1.6-5.5-4.6-5.5-8.7c0-6.1,4.6-10,11.6-10c2,0,3.8,0.3,5.3,0.9v-0.9c0-2.2,1.3-3.9,3.8-3.9h5.2    v4.7h-6.6v1.3c2.5,1.7,3.9,4.4,3.9,7.8c0,6.1-4.6,9.9-11.6,9.9c-1.3,0-2.4-0.1-3.5-0.3c-1.3,0.3-3,1.2-3,2.8c0,1.8,1.9,2,4.4,2    h6.4c7.7,0,10.8,3.2,10.8,7.9C895.1,315.3,890.2,318.1,880.1,318.1z M884.1,306.7h-9.9c-1.4,0.7-2.1,1.7-2.1,3.2    c0,2.1,1.7,3.9,5.8,3.9h4.5c4.5,0,7-1.4,7-4C889.4,307.9,888.1,306.7,884.1,306.7z M885.6,288v-1.5c0-3-1.8-5.1-5.7-5.1    s-5.7,2-5.7,5.1v1.5c0,3,1.8,5.1,5.7,5.1S885.6,291,885.6,288z"></path>			<path class="st0" d="M902.3,301.5h9.7v-18.7h-9.7v-4.9H918v23.6h9.1v4.9h-24.8V301.5z M910.9,269.5v-1.2c0-1.8,1.1-3.3,4.1-3.3    c3,0,4.1,1.4,4.1,3.3v1.2c0,1.8-1.1,3.3-4.1,3.3C912,272.8,910.9,271.3,910.9,269.5z"></path>			<path class="st0" d="M956.9,306.4c-3.4,0-5.1-1.9-5.5-4.8h-0.3c-1.1,3.4-4.1,5.5-8.5,5.5c-5.8,0-9.5-3.3-9.5-8.6    c0-5.5,4-8.5,12.5-8.5h5.5v-2.2c0-3.8-2-5.8-6.1-5.8c-3.6,0-5.8,1.5-7.3,3.9L934,283c1.6-3.1,5.5-5.7,11.5-5.7    c7.2,0,11.6,3.6,11.6,10.1v14.3h3.6v4.7H956.9z M951,297.9v-4.1h-5.3c-4.4,0-6.5,1.4-6.5,3.9v1.1c0,2.5,2,3.9,5.2,3.9    C948.2,302.6,951,300.7,951,297.9z"></path>		</g>	</g>	<g>		<path class="st0" d="M180.5,188.9h42.6v18.3h-42.6v81.6h42.6v18.3h-98.4v-18.3h35.1v-81.6h-35.1v-18.3h27.5c4.2,0,7.6-3.4,7.6-7.6   v-11.5c0-4.7,1.9-9.2,5.2-12.5l19.7-19.7c3.3-3.3,7.8-5.1,12.5-5.1h26v18.2h-42.6V188.9z"></path>		<path class="st0" d="M281.2,132.6h44.5v18.3h-61.4v89.3h61.4v18.3h-44.5c-4.7,0-9.2-1.9-12.5-5.2l-20-20   c-3.3-3.3-5.2-7.8-5.2-12.5v-50.7c0-4.7,1.9-9.2,5.2-12.5l20-20C272,134.4,276.5,132.6,281.2,132.6z"></path>		<path class="st0" d="M379.5,222.6v-71.7h-34.5v-18.3h26.9c4.2,0,7.6-3.4,7.6-7.6v-21.7h20.8v29.3H445v18.3h-44.8v89.3H445v18.3   h-31.9c-5.1,0-9.9-2.2-13.3-6l-16-18.3C381,231,379.5,226.8,379.5,222.6z"></path>		<rect x="243.5" y="288.8" class="st0" width="201.4" height="18.3"></rect>	</g></g></svg>