<?xml version="1.0" encoding="UTF-8"?>
<svg id="Layer_1" data-name="Layer 1" xmlns="http://www.w3.org/2000/svg" version="1.1" viewBox="0 0 3508 1211.5">
  <defs>
    <style>
      .cls-1 {
        fill: #231f20;
      }

      .cls-1, .cls-2, .cls-3 {
        stroke-width: 0px;
      }

      .cls-2 {
        fill: #00a389;
      }

      .cls-3 {
        fill: #fff;
      }
    </style>
  </defs>
  <g>
    <path class="cls-2" d="M170.7,680.6c121.9-62.8,300.5-164.2,512.5-312.5v-49.8c-186.6,122-376.3,220-512.5,284.9v77.5Z"/>
    <path class="cls-2" d="M170.7,531.9c135.7-55.3,325.5-140.7,512.5-251.9v-24.6c-175.8,87.2-358.4,141.8-512.5,175.8v100.7Z"/>
    <path class="cls-2" d="M683.2,680.8v-250.5c-116.7,98.4-232.2,183.5-329.3,250.5h329.3Z"/>
    <path class="cls-2" d="M288.4,680.8c92.2-54.7,204-126.1,315.5-209.6,26-19.5,52.5-39.5,79.4-60.3v-31c-164.9,123.6-333.2,226.7-464.7,300.9h69.9Z"/>
    <path class="cls-2" d="M170.7,394.7c149.9-26.3,333.3-73.8,512.5-158.9v-27.9c-180.6,81.1-361.3,115.4-512.5,127.7v59.2Z"/>
    <path class="cls-2" d="M170.7,165.8v143.5c11.2-.7,22.6-1.5,34.3-2.4,124.6-9.6,294.7-31.6,478.2-110.9v-30.1H170.7Z"/>
    <path class="cls-3" d="M170.7,309.2v26.3c151.2-12.2,331.9-46.6,512.5-127.7v-11.9c-183.5,79.4-353.6,101.4-478.2,110.9-11.6.9-23.1,1.7-34.3,2.4Z"/>
    <path class="cls-3" d="M170.7,431.2c154.1-34,336.7-88.6,512.5-175.8v-19.6c-179.2,85.2-362.6,132.6-512.5,158.9v36.4Z"/>
    <path class="cls-3" d="M170.7,603.1c136.2-64.8,325.9-162.8,512.5-284.9v-38.3c-187,111.2-376.7,196.6-512.5,251.9v71.2Z"/>
    <path class="cls-3" d="M288.4,680.8h65.5c97-66.9,212.6-152.1,329.3-250.5v-19.4c-26.8,20.7-53.4,40.8-79.4,60.3-111.4,83.5-223.3,154.9-315.5,209.6Z"/>
    <path class="cls-3" d="M170.7,680.8h47.8c131.5-74.2,299.8-177.3,464.7-300.9v-11.9c-212,148.3-390.6,249.8-512.5,312.5v.3Z"/>
  </g>
  <path class="cls-1" d="M3182.2,680.6h65.9v-93c0-36.4,0-103.3,53.6-103.3s23.7,1.9,29.6,5.4v-66.4c-6.9-2-13.8-2-20.2-2-39.3,0-66.4,39.9-69.3,63.4h-1v-57.5h-58.5v253.4ZM3116.3,612.7c-24.6,13.8-52.1,25.6-84.2,25.6s-69.3-23.1-72.3-64h175.1c0-88.6-26.5-153-120.5-153s-117.5,60.5-117.5,133.8,48.7,131.4,132.3,131.4,62.9-6.9,87.1-20.2v-53.6ZM2959.8,529c3-33.9,21.6-59.5,58.6-59.5s51.7,27.6,53.6,59.5h-112.2ZM2749.3,680.6h65.9v-205.2h57.5v-48.2h-57.5v-31.5c0-19.7,6.9-38.9,29.1-38.9s22.6,5.4,28.5,8.9l5.4-54.6c-12.8-2.9-31.5-5.4-48.2-5.4-52.2,0-80.7,35.4-80.7,86.1v35.4h-48.7v48.2h48.7v205.2ZM2487.1,547.7c0-37.9,20.7-75.3,63.5-75.3s63.9,36.4,63.9,75.3-13.2,87.6-63.9,87.6-63.5-45.8-63.5-87.6M2418.2,555.6c0,72.7,48.8,130.9,132.4,130.9s132.8-58.1,132.8-130.9-57.5-134.3-132.8-134.3-132.4,50.7-132.4,134.3M2143.7,680.6h65.9v-124c0-32.4,10.3-84.1,58.1-84.1s42.8,41.8,42.8,72.8v135.3h65.9v-159.9c0-57.1-26.1-99.4-86-99.4s-63,15.8-79.6,40.3h-1.1v-150h-65.9v369ZM1843.2,680.6h65.9v-124c0-32.4,10.3-84.1,58-84.1s42.8,41.8,42.8,72.8v135.3h66v-159.9c0-57.1-26.1-99.4-86.1-99.4s-62.5,11.3-83.1,40.3h-1.1v-34.4h-62.4v253.4ZM1775.2,427.2h-65.9v124c0,32.4-10.3,84.1-58.1,84.1s-42.8-41.8-42.8-72.8v-135.3h-65.9v159.9c0,57.1,26.1,99.4,86.1,99.4s63-15.7,83.1-40.4h1v34.5h62.5v-253.4ZM1325.5,607.3c0-38.9,43.8-43.8,73.3-43.8h28.5c0,19.7-3,37.9-13.8,52.2-10.3,13.7-26.1,22.6-46.2,22.6s-41.8-9.4-41.8-31M1292.1,497.1c22.1-16.7,50.2-27.6,78.2-27.6s57.1,13.8,57.1,54.6h-36.4c-27.5,0-60,2.4-85.1,14.7-25.1,12.3-43.3,34.5-43.3,72.4s43.8,75.3,88.6,75.3,63-15.7,78.2-43.8h1c.5,7.8.5,24.5,3,37.9h58c-1.5-19.7-2.5-37.4-3-56.6-.5-18.7-1-37.9-1-63.5v-32.5c0-74.8-32-106.8-109.2-106.8s-62.5,7.4-88.1,19.2l2,56.6ZM1093.9,680.6h65.9v-93c0-36.4,0-103.3,53.6-103.3s23.6,1.9,29.5,5.4v-66.4c-6.9-2-13.8-2-20.2-2-39.3,0-66.4,39.9-69.4,63.4h-1v-57.5h-58.5v253.4ZM855.8,680.6h68.9v-150.6h116.1v-54.1h-116.1v-84.6h122v-54.1h-190.9v343.4Z"/>
  <g>
    <path class="cls-1" d="M2067.5,855.5h42.1c18.7-.1,34.8,3.3,48.3,10.3,13.6,7.4,20.6,21.3,20.9,41.6-.2,19.7-6.3,33.8-18.3,42.1-12,8.5-27.3,12.7-45.7,12.6h-14v65.2h-33.3v-171.8ZM2100.8,935h11.7c8.7.2,16.2-1.6,22.4-5.4,6-3.8,9.1-10.5,9.3-20.2,0-5.1-.8-9.4-2.4-12.8-1.7-3.4-4-6.2-6.9-8.1-6-3.9-13.5-5.9-22.4-5.9h-11.7v52.4Z"/>
    <path class="cls-1" d="M2204.1,940.9c0-26.7,7-48.1,20.9-64,13.8-16.1,33.9-24.2,60.4-24.4,26.3.3,46.5,8.5,60.4,24.6,14,15.9,20.9,37.2,20.9,63.8-.1,26.4-7.1,47.7-20.7,64-14,16.6-34.2,25-60.6,25.4-26.6-.3-46.8-8.7-60.4-25.1-14-16.1-20.9-37.5-20.9-64.2ZM2238.8,940.9c-.2,16.1,3.4,30.3,10.7,42.6,7.3,12.8,19.3,19.4,35.9,19.7,8.6,0,15.8-1.8,21.9-5.4,6-3.6,10.8-8.3,14.3-14.3,7-12.3,10.5-26.5,10.5-42.6s-3.6-29.9-10.7-42.1c-7.5-12.5-19.4-18.9-35.9-19.2-16.3.3-28.1,6.7-35.4,19.2-7.5,12.2-11.2,26.2-11.2,42.1Z"/>
    <path class="cls-1" d="M2401.5,855.5h35.9c9.2,0,18.4.1,27.6.3,9.2.5,17.6,2.1,25.2,4.9,7.8,2.6,14,7.2,18.6,13.8,4.4,6.4,6.7,15.6,6.9,27.5,0,10.2-3,18.9-9,26.3-6,7.4-14.4,11.9-25.2,13.5v.5c4.4.5,8.1,2.6,10.9,6.2,2.9,3.6,5.1,7.5,6.7,11.6l26.6,67.2h-37.1l-20-53.6c-2.1-6.4-4.7-11-7.9-13.8-3.3-2.6-8.4-4-15.2-4h-10.7v71.4h-33.3v-171.8ZM2434.8,928.9h10.9c4.3,0,8.6-.3,12.8-1,4.1-.5,7.9-1.6,11.2-3.2,3.3-1.6,6.1-4,8.3-7.1,1.9-3.3,2.8-7.4,2.8-12.5s-.9-9.4-2.8-12.6c-2.2-3-5-5.2-8.3-6.6-3.3-1.5-7.1-2.5-11.2-3-4.3-.1-8.6-.3-12.8-.3h-10.9v46.3Z"/>
    <path class="cls-1" d="M2585.1,882.6h-47.6v-27.1h128.4v27.1h-47.6v144.7h-33.3v-144.7Z"/>
    <path class="cls-1" d="M2695.4,855.5h33.3v99.2c-.2,14.7,2.5,26.4,7.9,35,5.4,9,14.3,13.5,26.6,13.5s21.6-4.5,26.9-13.5c5.1-8.5,7.6-20.2,7.6-35v-99.2h33.3v109.8c-.6,44-23.2,65.7-67.8,65-44.6.7-67.2-21-67.8-65v-109.8Z"/>
    <path class="cls-1" d="M2958.7,879.6c-19.3.2-34.2,6.1-44.5,17.7-10.5,11.7-15.7,26.5-15.7,44.6s5,32.4,15,43.5c9.8,11.7,23.6,17.6,41.4,17.7,9,0,16.3-.8,21.9-2.5v-44.8h-35.2v-27.1h67.1v92.5c-17.7,5.6-35.7,8.6-53.7,8.9-27.3,0-49.1-7.1-65.4-21.4-17-14-25.5-35.5-25.7-64.5,1.1-60.6,31.5-91.2,91.1-91.8,18.7.2,35,2.5,48.8,7.1l-2.1,29c-14-6.1-28.2-9.1-42.8-9.1Z"/>
    <path class="cls-1" d="M3098.3,855.5h37.6l65.2,171.8h-36.9l-14.3-39.4h-67.3l-14.5,39.4h-34.5l64.7-171.8ZM3116.6,890h-.5l-24,70.9h48.5l-24-70.9Z"/>
    <path class="cls-1" d="M3232,855.5h33.3v144.7h64.5v27.1h-97.8v-171.8Z"/>
  </g>
</svg>