<svg xmlns:xlink="http://www.w3.org/1999/xlink" xmlns="http://www.w3.org/2000/svg" width="123.928" height="47.679" viewBox="0 0 123.928 47.679" class="Logo_if"><defs><clipPath id="0jc6glu8ta"><path data-name="Rectangle 136" style="fill:none;" d="M0 0h123.928v47.679H0z"></path></clipPath></defs><path data-name="Rectangle 130" transform="translate(37.113 14.296)" style="" d="M0 0h1.334v11.469H0z" fill="#969696"></path><g data-name="Group 528"><g data-name="Group 527" style="clip-path:url(#0jc6glu8ta);"><path data-name="Path 310" d="M88.1 38.807h-1.519l-6.268-9.625h-.063q.126 1.694.126 3.106v6.519h-1.232V27.338h1.507l6.249 9.586h.063q-.016-.211-.071-1.361t-.039-1.644v-6.581H88.1z" transform="translate(-37.756 -13.042)" style="" fill="#969696"></path><path data-name="Path 311" d="M107.735 35.6a2.813 2.813 0 0 1-1.1 2.361 4.762 4.762 0 0 1-2.981.847 7.469 7.469 0 0 1-3.138-.526V37a8.265 8.265 0 0 0 1.538.471 8.044 8.044 0 0 0 1.647.173 3.325 3.325 0 0 0 2.008-.506 1.661 1.661 0 0 0 .675-1.408 1.8 1.8 0 0 0-.24-.976 2.22 2.22 0 0 0-.8-.7 11.223 11.223 0 0 0-1.706-.73 5.447 5.447 0 0 1-2.287-1.357 3 3 0 0 1-.687-2.047 2.546 2.546 0 0 1 1-2.111 4.139 4.139 0 0 1 2.636-.784 7.769 7.769 0 0 1 3.146.628l-.416 1.16a7.117 7.117 0 0 0-2.761-.6 2.672 2.672 0 0 0-1.655.455 1.5 1.5 0 0 0-.6 1.263 1.935 1.935 0 0 0 .22.976 2.073 2.073 0 0 0 .742.7 9.211 9.211 0 0 0 1.6.7 6.318 6.318 0 0 1 2.482 1.381 2.715 2.715 0 0 1 .679 1.914" transform="translate(-47.953 -12.891)" style="" fill="#969696"></path><path data-name="Path 312" d="M121.559 38.806h-1.334V28.522h-3.632v-1.184h8.6v1.184h-3.632z" transform="translate(-55.621 -13.042)" style="" fill="#969696"></path><path data-name="Rectangle 131" transform="translate(71.298 14.296)" style="" d="M0 0h1.334v11.469H0z" fill="#969696"></path><path data-name="Path 313" d="M147.172 38.806h-1.334V28.522h-3.632v-1.184h8.6v1.184h-3.632z" transform="translate(-67.84 -13.042)" style="" fill="#969696"></path><path data-name="Path 314" d="M170.636 27.338v7.421a4.042 4.042 0 0 1-1.185 3.083 4.541 4.541 0 0 1-3.255 1.122 4.339 4.339 0 0 1-3.2-1.13 4.19 4.19 0 0 1-1.134-3.107v-7.389h1.333v7.484a2.948 2.948 0 0 0 .784 2.2 3.165 3.165 0 0 0 2.306.769 3.051 3.051 0 0 0 2.236-.773 2.971 2.971 0 0 0 .784-2.216v-7.464z" transform="translate(-77.215 -13.042)" style="" fill="#969696"></path><path data-name="Path 315" d="M186.822 38.806h-1.334V28.522h-3.632v-1.184h8.6v1.184h-3.632z" transform="translate(-86.755 -13.042)" style="" fill="#969696"></path><path data-name="Path 316" d="M210.241 32.891a6.316 6.316 0 0 1-1.393 4.33 4.9 4.9 0 0 1-3.872 1.577 4.954 4.954 0 0 1-3.91-1.549 6.363 6.363 0 0 1-1.377-4.373 6.283 6.283 0 0 1 1.381-4.342 4.992 4.992 0 0 1 3.922-1.542 4.883 4.883 0 0 1 3.859 1.569 6.3 6.3 0 0 1 1.389 4.331m-9.14 0a5.444 5.444 0 0 0 .993 3.534 4.053 4.053 0 0 0 5.762 0 5.519 5.519 0 0 0 .972-3.538 5.479 5.479 0 0 0-.968-3.511 3.472 3.472 0 0 0-2.867-1.2 3.538 3.538 0 0 0-2.9 1.2 5.388 5.388 0 0 0-.993 3.5" transform="translate(-95.263 -12.877)" style="" fill="#969696"></path><path data-name="Path 317" d="M90.505 64.3h-1.859V52.83h6.471v1.586h-4.612V58h4.323v1.593h-4.323z" transform="translate(-42.289 -25.203)" style="" fill="#5A5A5A"></path><path data-name="Rectangle 132" transform="translate(54.702 27.627)" style="" d="M0 0h1.875v11.469H0z" fill="#5A5A5A"></path><path data-name="Path 318" d="M113.626 64.3V52.83h1.874v9.861h4.856V64.3z" transform="translate(-54.206 -25.203)" style="" fill="#5A5A5A"></path><path data-name="Path 319" d="M139.255 58.385a6.272 6.272 0 0 1-1.4 4.354 5.884 5.884 0 0 1-7.954.012 6.309 6.309 0 0 1-1.393-4.381 6.216 6.216 0 0 1 1.4-4.362 5.158 5.158 0 0 1 4-1.522 5.053 5.053 0 0 1 3.953 1.545 6.265 6.265 0 0 1 1.4 4.354m-8.755 0a5.14 5.14 0 0 0 .856 3.212 3.479 3.479 0 0 0 5.055.012 5.154 5.154 0 0 0 .851-3.224 5.164 5.164 0 0 0-.844-3.2 2.981 2.981 0 0 0-2.514-1.09 3.044 3.044 0 0 0-2.546 1.09 5.1 5.1 0 0 0-.859 3.2" transform="translate(-61.305 -25.039)" style="" fill="#5A5A5A"></path><path data-name="Path 320" d="M159.422 61.035a2.888 2.888 0 0 1-1.106 2.4 4.818 4.818 0 0 1-3.052.871 7.281 7.281 0 0 1-3.185-.6V61.93a8.654 8.654 0 0 0 1.667.58 7.07 7.07 0 0 0 1.644.212 2.615 2.615 0 0 0 1.644-.424 1.382 1.382 0 0 0 .529-1.138 1.426 1.426 0 0 0-.486-1.09 7.327 7.327 0 0 0-2.009-1.059 5.307 5.307 0 0 1-2.212-1.451 3.071 3.071 0 0 1-.643-1.961 2.746 2.746 0 0 1 1.02-2.259 4.23 4.23 0 0 1 2.738-.824 8.046 8.046 0 0 1 3.279.722l-.6 1.53a7.161 7.161 0 0 0-2.729-.643 2.1 2.1 0 0 0-1.381.4 1.3 1.3 0 0 0-.47 1.047 1.48 1.48 0 0 0 .188.765 1.922 1.922 0 0 0 .62.6 10.426 10.426 0 0 0 1.553.745 8.532 8.532 0 0 1 1.851.981 2.888 2.888 0 0 1 .863 1.028 3.1 3.1 0 0 1 .275 1.349" transform="translate(-72.55 -25.053)" style="" fill="#5A5A5A"></path><path data-name="Path 321" d="M179.865 58.385a6.272 6.272 0 0 1-1.4 4.354 5.884 5.884 0 0 1-7.954.012 6.309 6.309 0 0 1-1.393-4.381 6.216 6.216 0 0 1 1.4-4.362 5.158 5.158 0 0 1 4-1.522 5.053 5.053 0 0 1 3.953 1.545 6.265 6.265 0 0 1 1.4 4.354m-8.755 0a5.14 5.14 0 0 0 .856 3.212 3.479 3.479 0 0 0 5.055.012 5.154 5.154 0 0 0 .851-3.224 5.165 5.165 0 0 0-.843-3.2 2.981 2.981 0 0 0-2.514-1.09 3.043 3.043 0 0 0-2.546 1.09 5.1 5.1 0 0 0-.859 3.2" transform="translate(-80.679 -25.039)" style="" fill="#5A5A5A"></path><path data-name="Path 322" d="M195.943 64.3h-1.859V52.83h6.471v1.586h-4.612V58h4.323v1.593h-4.323z" transform="translate(-92.589 -25.203)" style="" fill="#5A5A5A"></path><path data-name="Rectangle 133" transform="translate(109.841 27.627)" style="" d="M0 0h1.875v11.469H0z" fill="#5A5A5A"></path><path data-name="Path 323" d="m225.3 64.256-1.146-3.185h-4.385l-1.122 3.185h-1.977l4.291-11.516H223l4.291 11.516zm-1.64-4.8-1.075-3.122q-.118-.314-.326-.988t-.286-.988a17.607 17.607 0 0 1-.62 2.11l-1.035 2.989z" transform="translate(-103.363 -25.16)" style="" fill="#5A5A5A"></path><path data-name="Path 324" d="M74.444 63.909a3.8 3.8 0 0 1 2.844.987 3.984 3.984 0 0 1 .964 2.9v1.789h-7.473v-2.021a3.277 3.277 0 0 1 3.665-3.655m.02.567a2.861 2.861 0 0 0-3.224 3.21v1.375h6.552v-1.237q0-3.347-3.327-3.348" transform="translate(-33.765 -30.488)" style="" fill="#5A5A5A"></path><path data-name="Path 325" d="M78.252 52.836v4.084H70.78v-4.084h.481V56.4h2.827v-3.365h.481V56.4h3.2v-3.564z" transform="translate(-33.766 -25.206)" style="" fill="#5A5A5A"></path><path data-name="Path 326" d="M74.587 82.467v2.907a1.58 1.58 0 0 1-.464 1.207 1.776 1.776 0 0 1-1.274.44 1.7 1.7 0 0 1-1.256-.443 1.641 1.641 0 0 1-.443-1.216v-2.895h.522V85.4a1.155 1.155 0 0 0 .307.864 1.238 1.238 0 0 0 .9.3 1.194 1.194 0 0 0 .875-.3 1.165 1.165 0 0 0 .307-.868v-2.929z" transform="translate(-33.942 -39.341)" style="" fill="#5A5A5A"></path><path data-name="Path 327" d="M83.522 86.959h-.6l-2.454-3.769h-.026q.05.664.05 1.216v2.553h-.483v-4.492h.59l2.449 3.755h.024c0-.056-.013-.233-.027-.533s-.019-.515-.016-.643v-2.579h.489z" transform="translate(-38.171 -39.341)" style="" fill="#5A5A5A"></path><path data-name="Rectangle 134" transform="translate(46.58 43.126)" style="" d="M0 0h.522v4.492H0z" fill="#5A5A5A"></path><path data-name="Path 328" d="M94.616 82.467h.562l-1.619 4.492h-.516l-1.61-4.492h.553l1.032 2.907a8.021 8.021 0 0 1 .283.974 8.143 8.143 0 0 1 .289-.993z" transform="translate(-43.619 -39.341)" style="" fill="#5A5A5A"></path><path data-name="Path 329" d="M102.457 86.958h-2.5v-4.491h2.5v.464h-1.981v1.446h1.862v.461h-1.862v1.653h1.981z" transform="translate(-47.683 -39.341)" style="" fill="#5A5A5A"></path><path data-name="Path 330" d="M107.072 85.091v1.868h-.522v-4.492h1.232a1.941 1.941 0 0 1 1.222.316 1.148 1.148 0 0 1 .395.953 1.193 1.193 0 0 1-.9 1.2l1.219 2.019h-.618l-1.087-1.868zm0-.448h.715a1.238 1.238 0 0 0 .812-.22.817.817 0 0 0 .258-.659.749.749 0 0 0-.263-.642 1.423 1.423 0 0 0-.844-.2h-.679z" transform="translate(-50.83 -39.341)" style="" fill="#5A5A5A"></path><path data-name="Path 331" d="M116.608 85.7a1.1 1.1 0 0 1-.43.925 1.87 1.87 0 0 1-1.168.332 2.925 2.925 0 0 1-1.228-.206v-.5a3.256 3.256 0 0 0 .6.184 3.171 3.171 0 0 0 .645.067 1.3 1.3 0 0 0 .787-.2.649.649 0 0 0 .264-.551.714.714 0 0 0-.093-.383.876.876 0 0 0-.314-.275 4.416 4.416 0 0 0-.668-.286 2.125 2.125 0 0 1-.9-.531 1.171 1.171 0 0 1-.269-.8 1 1 0 0 1 .39-.826 1.62 1.62 0 0 1 1.032-.307 3.039 3.039 0 0 1 1.232.246l-.163.455a2.784 2.784 0 0 0-1.082-.234 1.047 1.047 0 0 0-.648.178.587.587 0 0 0-.233.495.756.756 0 0 0 .086.382.806.806 0 0 0 .29.274 3.589 3.589 0 0 0 .625.275 2.484 2.484 0 0 1 .972.541 1.065 1.065 0 0 1 .266.75" transform="translate(-54.28 -39.283)" style="" fill="#5A5A5A"></path><path data-name="Rectangle 135" transform="translate(63.229 43.126)" style="" d="M0 0h.522v4.492H0z" fill="#5A5A5A"></path><path data-name="Path 332" d="M127.845 84.67a2.266 2.266 0 0 1-.6 1.7 2.387 2.387 0 0 1-1.737.588h-1.248v-4.491h1.376a2.016 2.016 0 0 1 2.209 2.2m-.553.018a1.806 1.806 0 0 0-.441-1.324 1.765 1.765 0 0 0-1.31-.446h-.759v3.589h.636a1.935 1.935 0 0 0 1.4-.459 1.82 1.82 0 0 0 .47-1.36" transform="translate(-59.279 -39.341)" style="" fill="#5A5A5A"></path><path data-name="Path 333" d="m135.141 86.942-.559-1.429h-1.8l-.553 1.429h-.529l1.775-4.51h.439l1.766 4.51zm-.722-1.9-.522-1.392a7.752 7.752 0 0 1-.209-.648 5.638 5.638 0 0 1-.194.648l-.528 1.392z" transform="translate(-62.828 -39.325)" style="" fill="#5A5A5A"></path><path data-name="Path 334" d="M144.283 84.67a2.266 2.266 0 0 1-.6 1.7 2.387 2.387 0 0 1-1.737.588H140.7v-4.491h1.376a2.016 2.016 0 0 1 2.209 2.2m-.553.018a1.806 1.806 0 0 0-.441-1.324 1.765 1.765 0 0 0-1.31-.446h-.759v3.589h.636a1.935 1.935 0 0 0 1.4-.459 1.82 1.82 0 0 0 .47-1.36" transform="translate(-67.121 -39.341)" style="" fill="#5A5A5A"></path><path data-name="Path 335" d="M151.991 86.958h-2.5v-4.491h2.5v.464h-1.981v1.446h1.862v.461h-1.862v1.653h1.981z" transform="translate(-71.314 -39.341)" style="" fill="#5A5A5A"></path><path data-name="Path 336" d="M163.009 84.67a2.266 2.266 0 0 1-.6 1.7 2.387 2.387 0 0 1-1.737.588h-1.245v-4.491h1.373a2.016 2.016 0 0 1 2.209 2.2m-.553.018a1.806 1.806 0 0 0-.441-1.324 1.765 1.765 0 0 0-1.31-.446h-.759v3.589h.636a1.935 1.935 0 0 0 1.4-.459 1.82 1.82 0 0 0 .47-1.36" transform="translate(-76.054 -39.341)" style="" fill="#5A5A5A"></path><path data-name="Path 337" d="M171.941 84.642a2.472 2.472 0 0 1-.545 1.7 1.918 1.918 0 0 1-1.516.618 1.941 1.941 0 0 1-1.531-.607 2.493 2.493 0 0 1-.54-1.713 2.461 2.461 0 0 1 .541-1.7 1.955 1.955 0 0 1 1.536-.6 1.915 1.915 0 0 1 1.511.614 2.47 2.47 0 0 1 .544 1.7m-3.579 0a2.129 2.129 0 0 0 .389 1.384 1.587 1.587 0 0 0 2.257 0 2.7 2.7 0 0 0 0-2.76 1.359 1.359 0 0 0-1.123-.469 1.385 1.385 0 0 0-1.135.472 2.109 2.109 0 0 0-.389 1.372" transform="translate(-80.054 -39.277)" style="" fill="#5A5A5A"></path><path data-name="Path 338" d="M183.719 83.776a1.257 1.257 0 0 1-.465 1.049 2.108 2.108 0 0 1-1.331.367h-.529v1.767h-.522v-4.492h1.165q1.683 0 1.683 1.309m-2.326.968h.47a1.745 1.745 0 0 0 1-.224.826.826 0 0 0 .311-.719.773.773 0 0 0-.292-.663 1.519 1.519 0 0 0-.909-.219h-.584z" transform="translate(-86.285 -39.341)" style="" fill="#5A5A5A"></path><path data-name="Path 339" d="M191.872 84.642a2.471 2.471 0 0 1-.545 1.7 1.918 1.918 0 0 1-1.516.618 1.941 1.941 0 0 1-1.531-.607 2.493 2.493 0 0 1-.54-1.713 2.461 2.461 0 0 1 .541-1.7 1.955 1.955 0 0 1 1.536-.6 1.915 1.915 0 0 1 1.511.614 2.47 2.47 0 0 1 .544 1.7m-3.579 0a2.129 2.129 0 0 0 .389 1.384 1.587 1.587 0 0 0 2.256 0 2.7 2.7 0 0 0 0-2.76 1.359 1.359 0 0 0-1.123-.469 1.385 1.385 0 0 0-1.135.472 2.109 2.109 0 0 0-.389 1.372" transform="translate(-89.562 -39.277)" style="" fill="#5A5A5A"></path><path data-name="Path 340" d="M198.117 85.091v1.868h-.517v-4.492h1.232a1.941 1.941 0 0 1 1.222.316 1.148 1.148 0 0 1 .395.953 1.193 1.193 0 0 1-.9 1.2l1.22 2.019h-.618l-1.087-1.868zm0-.448h.715a1.238 1.238 0 0 0 .812-.22.817.817 0 0 0 .258-.659.749.749 0 0 0-.263-.642 1.423 1.423 0 0 0-.844-.2h-.679z" transform="translate(-94.264 -39.341)" style="" fill="#5A5A5A"></path><path data-name="Path 341" d="M206.057 86.958h-.522v-4.027h-1.423v-.464h3.368v.464h-1.423z" transform="translate(-97.372 -39.341)" style="" fill="#5A5A5A"></path><path data-name="Path 342" d="M215.381 84.642a2.471 2.471 0 0 1-.545 1.7 1.918 1.918 0 0 1-1.516.618 1.941 1.941 0 0 1-1.531-.607 2.493 2.493 0 0 1-.54-1.713 2.461 2.461 0 0 1 .541-1.7 1.955 1.955 0 0 1 1.536-.6 1.914 1.914 0 0 1 1.511.614 2.47 2.47 0 0 1 .544 1.7m-3.579 0a2.129 2.129 0 0 0 .389 1.384 1.587 1.587 0 0 0 2.257 0 2.7 2.7 0 0 0 0-2.76 1.359 1.359 0 0 0-1.123-.469 1.385 1.385 0 0 0-1.135.472 2.109 2.109 0 0 0-.389 1.372" transform="translate(-100.777 -39.277)" style="" fill="#5A5A5A"></path><path data-name="Path 343" d="M45.119 37.274h-17.4a.808.808 0 0 1-.808-.808v-8.4a.808.808 0 0 1 .808-.808h17.4a.808.808 0 0 1 .808.808v8.4a.808.808 0 0 1-.808.808" transform="translate(-12.839 -13.003)" style="" fill="#5A5A5A"></path><path data-name="Path 344" d="M10.439 27.257H.808a.807.807 0 0 0-.808.807v31.75a.808.808 0 0 0 .808.808h9.631a.808.808 0 0 0 .808-.808v-31.75a.808.808 0 0 0-.808-.807M7.6 56.071a2.7 2.7 0 0 1-1.976.83 2.7 2.7 0 0 1-1.977-.83 2.77 2.77 0 0 1 0-3.956 2.7 2.7 0 0 1 1.977-.83 2.7 2.7 0 0 1 1.976.83 2.77 2.77 0 0 1 0 3.956m0-8.424a2.7 2.7 0 0 1-1.976.83 2.7 2.7 0 0 1-1.977-.83 2.77 2.77 0 0 1 0-3.956 2.7 2.7 0 0 1 1.977-.83 2.7 2.7 0 0 1 1.976.83 2.77 2.77 0 0 1 0 3.956" transform="translate(0 -13.003)" style="" fill="#969696"></path><path data-name="Path 345" d="M32.279 10.018H.808A.808.808 0 0 1 0 9.21V.808A.808.808 0 0 1 .808 0h31.471a.808.808 0 0 1 .808.808v8.4a.808.808 0 0 1-.808.808" style="" fill="#5A5A5A"></path><path data-name="Path 346" d="M11.246 10.018H.808A.808.808 0 0 1 0 9.21V.808A.808.808 0 0 1 .808 0h10.438z" style="" fill="#969696"></path><path data-name="Path 347" d="M31.7 70.307a2.77 2.77 0 1 1 .83-1.978 2.7 2.7 0 0 1-.83 1.978m0-8.424a2.769 2.769 0 1 0-1.976.83 2.7 2.7 0 0 0 1.976-.83" transform="translate(-12.839 -27.238)" style="" fill="#14A1DC"></path><path data-name="Path 348" d="M51.933 70.307a2.77 2.77 0 1 1 .83-1.978 2.7 2.7 0 0 1-.83 1.978m0-8.424a2.769 2.769 0 1 0-1.976.83 2.7 2.7 0 0 0 1.976-.83" transform="translate(-22.493 -27.238)" style="" fill="#AAE408"></path></g></g></svg>