<svg xmlns="http://www.w3.org/2000/svg" width="2139" height="1797" viewBox="0 0 2139 1797" fill="none"><g opacity="0.01"><path d="M482.084 508.482C416.529 508.482 358.124 514.931 306.868 527.83C255.553 540.758 213.83 561.936 181.702 591.452C149.543 620.939 128.546 660.894 118.651 711.288C107.519 766.601 111.531 814.865 130.718 855.99C149.874 897.175 175.819 933.741 208.611 965.717C241.344 997.693 274.74 1027.21 308.739 1054.21C342.738 1081.26 370.553 1107.42 392.183 1132.56C413.814 1157.75 421.537 1183.91 415.352 1210.91C411.642 1228.16 402.048 1242.25 386.632 1253.32C371.156 1264.39 349.224 1269.91 320.806 1269.91C270.094 1269.91 234.254 1252.39 213.257 1217.36C192.23 1182.32 181.732 1132.89 181.732 1068.93C128.576 1064.05 80.971 1069.56 38.947 1085.52C37.68 1124.88 33.999 1163.27 27.815 1200.77C21.6 1238.26 12.339 1275.43 0 1312.3C32.129 1333.23 74.455 1350.72 127.037 1364.85C179.56 1378.98 239.835 1386.06 307.834 1386.06C384.46 1386.06 448.447 1379.64 499.762 1366.71C551.048 1353.78 591.835 1332.6 622.154 1303.09C652.442 1273.6 672.504 1233.64 682.429 1183.25C691.057 1136.55 688.915 1095.66 675.943 1060.66C662.971 1025.62 643.784 993.974 618.473 965.717C593.132 937.46 565.317 911.663 535.029 888.266C504.71 864.929 475.96 842.162 448.809 820.055C421.597 797.917 400.6 775.51 385.758 752.773C370.915 730.035 366.571 705.738 372.785 679.941C376.496 659.064 386.361 643.676 402.441 633.837C418.49 624.028 439.517 619.109 465.492 619.109C507.515 619.109 538.739 635.997 559.133 669.803C579.526 703.609 590.326 754.302 591.594 821.914C616.331 823.144 641.039 822.214 665.777 819.125C690.514 816.065 713.351 810.246 734.409 801.637C735.615 715.607 747.381 639.356 769.645 573.004C735.012 554.557 691.449 539.198 638.927 526.9C586.374 514.601 534.154 508.452 482.235 508.452L482.084 508.482Z" fill="black"></path><path d="M1249.55 0.0300028C1184.29 0.0300028 1126.15 6.47922 1075.12 19.3777C1024.04 32.3061 982.508 53.4835 950.524 83C918.511 112.486 897.609 152.442 887.759 202.835C876.677 258.149 880.671 306.413 899.771 347.538C918.841 388.723 944.668 425.289 977.313 457.265C1009.9 489.241 1043.14 518.757 1076.99 545.754C1110.83 572.811 1138.52 598.968 1160.05 624.105C1181.59 649.302 1189.27 675.459 1183.12 702.455C1179.42 719.703 1169.87 733.801 1154.53 744.87C1139.12 755.939 1117.29 761.458 1089 761.458C1038.52 761.458 1002.84 743.94 981.936 708.904C961.004 673.869 950.553 624.435 950.553 560.482C897.638 555.593 850.248 561.112 808.415 577.07C807.153 616.426 803.49 654.821 797.334 692.316C791.148 729.812 781.928 766.977 769.645 803.843C801.629 824.78 843.763 842.268 896.107 856.397C948.392 870.525 1008.39 877.604 1076.09 877.604C1152.37 877.604 1216.06 871.185 1267.15 858.256C1318.2 845.328 1358.8 824.151 1388.98 794.634C1419.13 765.148 1439.11 725.192 1448.99 674.799C1457.57 628.094 1455.44 587.209 1442.53 552.203C1429.62 517.168 1410.52 485.521 1385.32 457.265C1360.09 429.008 1332.4 403.211 1302.25 379.814C1272.07 356.477 1243.45 333.71 1216.42 311.602C1189.33 289.465 1168.43 267.058 1153.66 244.32C1138.88 221.583 1134.56 197.286 1140.74 171.489C1144.44 150.612 1154.26 135.224 1170.26 125.385C1186.24 115.576 1207.17 110.657 1233.03 110.657C1274.86 110.657 1305.95 127.545 1326.25 161.351C1346.55 195.156 1357.3 245.85 1358.56 313.462C1383.19 314.692 1407.78 313.762 1432.41 310.673C1457.03 307.613 1479.77 301.794 1500.73 293.185C1501.93 207.155 1513.64 130.904 1535.81 64.5522C1501.33 46.1044 1457.96 30.7463 1405.68 18.4478C1353.37 6.14926 1301.38 0 1249.7 0L1249.55 0.0300028Z" fill="black"></path><path d="M1084.57 919.426C1019.01 919.426 960.607 925.875 909.352 938.773C858.036 951.702 816.314 972.879 784.185 1002.4C752.026 1031.88 731.029 1071.84 721.134 1122.23C710.002 1177.54 714.014 1225.81 733.201 1266.93C752.358 1308.12 778.302 1344.68 811.095 1376.66C843.827 1408.64 877.223 1438.15 911.222 1465.15C945.222 1492.21 973.036 1518.36 994.667 1543.5C1016.3 1568.7 1024.02 1594.85 1017.84 1621.85C1014.13 1639.1 1004.53 1653.2 989.116 1664.27C973.64 1675.33 951.708 1680.85 923.289 1680.85C872.577 1680.85 836.738 1663.34 815.741 1628.3C794.714 1593.26 784.215 1543.83 784.215 1479.88C731.059 1474.99 683.454 1480.51 641.43 1496.47C640.163 1535.82 636.483 1574.22 630.298 1611.71C624.084 1649.21 614.822 1686.37 602.483 1723.24C634.612 1744.18 676.938 1761.66 729.521 1775.79C782.043 1789.92 842.319 1797 910.317 1797C986.944 1797 1050.93 1790.58 1102.25 1777.65C1153.53 1764.72 1194.32 1743.55 1224.64 1714.03C1254.93 1684.54 1274.99 1644.59 1284.91 1594.19C1293.54 1547.49 1291.4 1506.6 1278.43 1471.6C1265.45 1436.56 1246.27 1404.92 1220.96 1376.66C1195.62 1348.4 1167.8 1322.61 1137.51 1299.21C1107.19 1275.87 1078.44 1253.11 1051.29 1231C1024.08 1208.86 1003.08 1186.45 988.241 1163.72C973.398 1140.98 969.054 1116.68 975.269 1090.89C978.979 1070.01 988.844 1054.62 1004.92 1044.78C1020.97 1034.97 1042 1030.05 1067.98 1030.05C1110 1030.05 1141.22 1046.94 1161.62 1080.75C1182.01 1114.55 1192.81 1165.25 1194.08 1232.86C1218.82 1234.09 1243.52 1233.16 1268.26 1230.07C1293 1227.01 1315.83 1221.19 1336.89 1212.58C1338.1 1126.55 1349.86 1050.3 1372.13 983.948C1337.5 965.5 1293.93 950.142 1241.41 937.844C1188.86 925.545 1136.64 919.396 1084.72 919.396L1084.57 919.426Z" fill="black"></path><path d="M1852.03 410.971C1786.77 410.971 1728.63 417.42 1677.61 430.319C1626.52 443.247 1584.99 464.425 1553.01 493.941C1520.99 523.428 1500.09 563.383 1490.24 613.777C1479.16 669.09 1483.15 717.354 1502.25 758.479C1521.32 799.664 1547.15 836.23 1579.79 868.206C1612.38 900.182 1645.62 929.699 1679.47 956.695C1713.31 983.752 1741 1009.91 1762.53 1035.05C1784.07 1060.24 1791.76 1086.4 1785.6 1113.4C1781.91 1130.64 1772.35 1144.74 1757.01 1155.81C1741.6 1166.88 1719.77 1172.4 1691.48 1172.4C1641 1172.4 1605.32 1154.88 1584.42 1119.85C1563.49 1084.81 1553.04 1035.38 1553.04 971.424C1500.12 966.534 1452.73 972.053 1410.9 988.012C1409.64 1027.37 1405.97 1065.76 1399.81 1103.26C1393.63 1140.75 1384.41 1177.92 1372.13 1214.78C1404.11 1235.72 1446.24 1253.21 1498.59 1267.34C1550.87 1281.47 1610.88 1288.55 1678.57 1288.55C1754.85 1288.55 1818.54 1282.13 1869.63 1269.2C1920.68 1256.27 1961.28 1235.09 1991.46 1205.58C2021.62 1176.09 2041.59 1136.13 2051.47 1085.74C2060.06 1039.04 2057.92 998.15 2045.01 963.145C2032.1 928.109 2013 896.463 1987.8 868.206C1962.57 839.949 1934.89 814.152 1904.73 790.755C1874.55 767.418 1845.93 744.651 1818.9 722.544C1791.82 700.406 1770.91 677.999 1756.14 655.262C1741.36 632.524 1737.04 608.227 1743.22 582.43C1746.92 561.553 1756.74 546.165 1772.75 536.326C1788.72 526.517 1809.65 521.598 1835.51 521.598C1877.34 521.598 1908.43 538.486 1928.73 572.292C1949.03 606.098 1959.78 656.791 1961.04 724.403C1985.67 725.633 2010.26 724.703 2034.89 721.614C2059.52 718.554 2082.25 712.735 2103.21 704.126C2104.41 618.096 2116.13 541.845 2138.29 475.493C2103.81 457.046 2060.45 441.687 2008.16 429.389C1955.85 417.09 1903.86 410.941 1852.18 410.941L1852.03 410.971Z" fill="black"></path></g></svg>