<svg width="1482" height="440" viewBox="0 0 1482 440" fill="none" xmlns="http://www.w3.org/2000/svg">
<path fill-rule="evenodd" clip-rule="evenodd" d="M186 2.20799C177.36 -1.73414 144.387 -0.207983 134.398 5.27715L0 436.094C10.346 441.888 40.8779 440.753 53.4062 435.178C63.5736 399.181 174.523 37.5975 186 2.20799ZM286.701 122.566C299.159 119.41 313.359 117.836 329.283 117.836V117.816C341.9 117.816 354.587 119.32 367.364 122.327C380.12 125.324 390.716 129.078 399.131 133.588C393.723 149.798 390.855 168.437 390.567 189.456C385.448 191.567 379.891 192.991 373.886 193.737C367.871 194.494 361.867 194.713 355.862 194.414C355.563 177.896 352.934 165.51 347.975 157.246C343.015 148.991 335.427 144.859 325.22 144.859C318.906 144.859 313.798 146.064 309.894 148.464C305.98 150.863 303.58 154.617 302.684 159.725C301.18 166.037 302.236 171.972 305.841 177.528C309.456 183.094 314.554 188.57 321.167 193.976C327.779 199.383 334.76 204.939 342.129 210.644C349.478 216.359 356.24 222.662 362.404 229.572C368.559 236.482 373.219 244.209 376.376 252.772C379.533 261.325 380.06 271.321 377.959 282.732C375.549 295.058 370.67 304.816 363.311 312.025C355.941 319.234 346.033 324.411 333.565 327.567C321.087 330.724 305.542 332.297 286.92 332.297C270.399 332.297 255.75 330.564 242.984 327.119C230.207 323.664 219.92 319.393 212.113 314.275C215.11 305.264 217.371 296.173 218.875 287.013C220.378 277.863 221.275 268.474 221.583 258.855C231.791 254.952 243.362 253.608 256.278 254.803C256.278 270.425 258.828 282.513 263.936 291.076C269.045 299.638 277.758 303.92 290.077 303.92C296.988 303.92 302.316 302.576 306.08 299.867C309.834 297.169 312.164 293.714 313.061 289.502C314.564 282.901 312.682 276.519 307.424 270.355C302.166 264.212 295.414 257.82 287.149 251.208C278.884 244.607 270.768 237.398 262.811 229.582C254.844 221.776 248.531 212.835 243.88 202.768C239.22 192.712 238.254 180.923 240.952 167.402C243.362 155.085 248.461 145.317 256.278 138.108C264.086 130.9 274.233 125.722 286.701 122.566ZM510.893 280.939C506.99 284.544 503.454 287.103 500.298 288.606C497.141 290.11 494.362 290.856 491.962 290.856C488.358 290.856 486.246 288.676 485.649 284.325C485.041 279.974 486.545 270.286 490.16 255.261L510.435 169.652C514.339 154.328 514.946 142.768 512.238 134.952C509.529 127.146 504.271 121.431 496.464 117.836C489.553 120.843 481.885 123.691 473.48 126.399C465.065 129.107 456.282 131.358 447.12 133.16C437.958 134.962 429.016 136.017 420.302 136.306C418.798 139.911 417.673 144.043 416.926 148.692C416.169 153.352 415.95 157.783 416.249 161.985C425.859 161.985 432.7 162.961 436.753 164.912C440.806 166.874 442.679 171.075 442.39 177.528C442.081 183.99 440.279 193.678 436.982 206.592L423.459 258.865C420.153 273.283 418.729 286.057 419.177 297.169C419.625 308.291 423.011 316.923 429.315 323.077C435.628 329.23 445.537 332.307 459.06 332.307C470.174 332.307 481.138 329.897 491.962 325.098C502.777 320.289 512.845 313.08 522.156 303.462C521.549 299.26 520.194 295.058 518.103 290.846C516.002 286.645 513.592 283.339 510.893 280.929V280.939ZM469.208 24.5604C476.866 18.8551 486.555 15.9975 498.276 15.9975L498.266 16.0075C508.782 16.0075 516.898 19.3132 522.604 25.9146C528.301 32.5259 530.113 41.2381 528.012 52.0513C526.209 61.9583 521.549 69.7745 514.04 75.4798C506.522 81.195 496.613 84.0426 484.295 84.0426C473.779 84.0426 465.822 80.8166 460.414 74.3546C455.007 67.9026 453.205 59.4094 455.007 48.895C456.819 38.3805 461.55 30.2657 469.208 24.5604ZM749.286 117.836C742.973 120.246 734.558 122.038 724.052 123.243C721.403 123.541 718.535 123.81 715.458 124.039C710.967 122.556 705.868 121.241 700.172 120.096C692.663 118.593 684.547 117.846 675.833 117.846C651.794 117.846 630.842 122.795 612.966 132.712C595.091 142.629 580.671 156.07 569.707 173.037C558.733 190.013 551.155 209.011 546.952 230.04C544.254 243.561 542.899 256.475 542.899 268.792C542.899 281.109 544.622 292.071 548.078 301.679C551.523 311.298 556.941 318.795 564.3 324.212C571.659 329.618 581.349 332.317 593.368 332.317C606.583 332.317 618.832 328.563 630.095 321.055C641.358 313.548 651.645 303.034 660.966 289.512C670.277 275.991 678.233 260.219 684.846 242.197H685.891L682.595 250.76C677.188 264.58 672.826 277.345 669.53 289.064C666.224 300.773 663.814 311.596 662.32 321.504C659.91 338.022 657.659 351.165 655.558 360.933C653.447 370.69 650.977 377.979 648.119 382.788C645.261 387.587 641.656 390.743 637.305 392.247C632.943 393.74 627.466 394.497 620.853 394.497C613.036 394.497 604.552 393.97 595.39 392.914C586.228 391.859 576.987 390.206 567.676 387.956C558.365 385.705 549.651 383.226 541.535 380.518C539.125 385.626 537.253 391.56 535.899 398.321C534.544 405.081 534.017 411.314 534.325 417.02C543.636 424.228 553.545 429.864 564.071 433.916C574.587 437.969 586.895 440 601.026 440C620.246 440 637.305 435.719 652.172 427.156C667.04 418.593 680.036 406.804 691.149 391.779C702.263 376.754 711.494 359.26 718.863 339.286C726.223 319.313 731.999 297.756 736.211 274.627L757.841 150.266C759.344 140.956 759.494 133.976 758.289 129.316C757.084 124.667 754.076 120.833 749.276 117.826L749.286 117.836ZM670.426 237.458C662.609 253.229 654.801 264.879 646.994 272.376C639.177 279.884 632.724 283.638 627.615 283.638C619.2 283.638 613.942 277.634 611.841 265.616C609.73 253.608 611.084 236.034 615.894 212.894C619.798 193.379 625.962 177.378 634.367 164.912C642.772 152.446 654.343 146.213 669.072 146.213C673.872 146.213 679.209 146.741 685.075 147.796C689.387 148.573 693.151 149.638 696.407 150.973L690.253 176.86C684.846 201.494 678.233 221.696 670.426 237.468V237.458ZM1003.67 288.148C1007.13 286.346 1010.66 283.946 1014.27 280.939L1014.29 280.949C1017 283.648 1019.48 287.033 1021.73 291.085C1023.98 295.138 1025.4 299.27 1026.01 303.472C1016.09 313.389 1005.8 320.677 995.138 325.327C984.463 329.977 973.728 332.307 962.913 332.307C948.184 332.307 937.818 329.081 931.813 322.619C925.808 316.157 922.87 307.076 923.03 295.357C923.169 283.648 924.902 270.276 928.208 255.261L937.668 214.258C940.068 203.445 941.273 194.663 941.273 187.903C941.273 181.142 940.297 176.183 938.346 173.037C936.394 169.881 933.466 168.298 929.562 168.298C924.454 168.298 918.588 170.936 911.986 176.183C905.373 181.441 898.622 189.097 891.711 199.164C884.799 209.23 878.336 221.776 872.332 236.791C866.317 251.816 861.517 269.081 857.912 288.606L850.702 328.254H785.355L808.787 203.893C811.187 191.587 812.392 182.426 812.392 176.412C812.392 170.398 810.361 166.495 806.308 164.693C802.255 162.891 795.413 161.985 785.803 161.985C785.803 157.783 786.092 153.352 786.7 148.692C787.297 144.043 788.353 139.911 789.857 136.306C798.56 136.017 807.951 134.962 818.019 133.16C828.077 131.358 837.916 129.107 847.535 126.399C857.145 123.691 865.56 120.843 872.77 117.836C878.177 120.236 881.862 123.91 883.814 128.868C885.765 133.827 886.134 139.911 884.939 147.119C883.136 158.231 880.876 167.929 878.177 176.183C875.469 184.448 872.013 193.389 867.811 202.997L867.661 204.301L875.469 188.122C879.671 179.419 885.078 170.856 891.691 162.443C898.293 154.029 905.652 146.442 913.768 139.682C921.884 132.921 930.508 127.594 939.68 123.691C948.842 119.788 957.934 117.836 966.946 117.836C974.455 117.836 981.366 119.34 987.679 122.347C993.983 125.354 999.171 130.232 1003.22 136.993C1007.28 143.754 1009.69 152.844 1010.43 164.255C1011.18 175.666 1009.61 189.635 1005.7 206.153L994.889 252.114C992.19 264.122 990.378 272.835 989.482 278.241C988.585 283.648 988.655 287.103 989.711 288.606C990.756 290.11 992.34 290.856 994.441 290.856C997.14 290.856 1000.22 289.95 1003.67 288.148ZM1261.45 168.068C1255.6 152.297 1245.53 139.98 1231.26 131.119C1216.99 122.267 1198.59 117.826 1176.05 117.826C1153.52 117.826 1134.44 122.177 1117.02 130.89C1099.59 139.602 1085.17 151.839 1073.76 167.61C1062.34 183.382 1054.83 202.38 1051.22 224.613C1047.62 245.642 1048.58 264.272 1054.15 280.481C1059.71 296.701 1069.7 309.396 1084.12 318.556C1098.54 327.717 1117.17 332.297 1140 332.297C1162.84 332.297 1182.06 327.876 1199.48 319.004C1216.9 310.143 1231.33 297.527 1242.74 281.158C1254.15 264.789 1261.51 245.642 1264.82 223.707C1268.42 202.38 1267.3 183.83 1261.44 168.058L1261.45 168.068ZM1196.78 226.416C1194.09 242.635 1190.09 256.605 1184.84 268.324C1179.59 280.043 1173.58 289.054 1166.82 295.357C1160.06 301.66 1152.77 304.816 1144.96 304.816C1137.15 304.816 1131.22 301.44 1126.26 294.68C1121.3 287.919 1118.29 278.231 1117.25 265.616C1116.19 253 1117.02 237.985 1119.73 220.561C1123.93 198.029 1130.46 179.857 1139.32 166.037C1148.19 152.227 1158.33 145.307 1169.75 145.307C1182.36 145.307 1191.08 152.825 1195.89 167.839C1200.69 182.864 1201 202.39 1196.78 226.416ZM1480 2.20799C1471.36 -1.73414 1438.39 -0.207983 1428.4 5.27715L1294 436.094C1304.35 441.888 1334.88 440.753 1347.41 435.178C1357.57 399.181 1468.52 37.5975 1480 2.20799Z" fill="white"/>
</svg>
